<svg width="1280" height="640" viewBox="0 0 1280 640" xmlns="http://www.w3.org/2000/svg" role="img" aria-label="KnowMesh social preview">
  <defs>
    <linearGradient id="bg" x1="0" y1="0" x2="1" y2="1">
      <stop offset="0" stop-color="#fbfdfc"/>
      <stop offset="0.52" stop-color="#f2fbf8"/>
      <stop offset="1" stop-color="#edf4ff"/>
    </linearGradient>
    <linearGradient id="ink" x1="0" y1="0" x2="1" y2="1">
      <stop offset="0" stop-color="#102326"/>
      <stop offset="1" stop-color="#17333a"/>
    </linearGradient>
    <linearGradient id="panel" x1="0" y1="0" x2="1" y2="1">
      <stop offset="0" stop-color="#ffffff"/>
      <stop offset="1" stop-color="#f5faf9"/>
    </linearGradient>
    <filter id="shadow" x="-20%" y="-20%" width="140%" height="140%">
      <feDropShadow dx="0" dy="18" stdDeviation="22" flood-color="#0f172a" flood-opacity="0.14"/>
    </filter>
  </defs>

  <rect width="1280" height="640" rx="0" fill="url(#bg)"/>
  <path d="M902 40C1010 24 1146 70 1194 174C1261 319 1164 500 1012 526C858 552 736 451 724 314C712 178 772 60 902 40Z" fill="#dbeafe" opacity="0.62"/>
  <path d="M36 552C136 498 255 506 352 558C430 600 501 622 604 588C704 555 794 511 912 540C1019 566 1085 608 1244 596V640H36Z" fill="#d1fae5" opacity="0.46"/>

  <g transform="translate(70 72)" font-family="Segoe UI, Microsoft YaHei UI, Arial, sans-serif">
    <rect x="0" y="0" width="1140" height="496" rx="34" fill="url(#panel)" stroke="#d8e6e6" filter="url(#shadow)"/>

    <g transform="translate(58 60)">
      <rect x="0" y="0" width="82" height="82" rx="22" fill="url(#ink)"/>
      <path d="M28 21v40" fill="none" stroke="#ecfdf5" stroke-width="6" stroke-linecap="round"/>
      <path d="M35 41 61 22M35 41h30M35 41l26 20" fill="none" stroke="#ecfdf5" stroke-width="6" stroke-linecap="round"/>
      <circle cx="28" cy="21" r="7" fill="#34d399"/>
      <circle cx="28" cy="61" r="7" fill="#34d399"/>
      <circle cx="35" cy="41" r="10" fill="#f2b84b"/>
      <circle cx="61" cy="22" r="7" fill="#34d399"/>
      <circle cx="65" cy="41" r="7" fill="#60a5fa"/>
      <circle cx="61" cy="60" r="7" fill="#34d399"/>

      <text x="112" y="37" font-size="42" font-weight="760" fill="#102326">KnowMesh</text>
      <text x="113" y="75" font-size="28" font-weight="650" fill="#0f766e">知络</text>

      <text x="0" y="142" font-size="50" font-weight="780" fill="#102326">Knowledge Asset</text>
      <text x="0" y="206" font-size="50" font-weight="780" fill="#102326">Compiler</text>
      <text x="0" y="256" font-size="24" font-weight="560" fill="#405766">把文档文件夹编译成可信知识资产</text>
      <text x="0" y="296" font-size="19" font-weight="520" fill="#526879">Local-first RAG with SQLite catalogs and cited answers.</text>

      <g transform="translate(0 352)" font-size="18" font-weight="680">
        <rect x="0" y="0" width="132" height="40" rx="20" fill="#ecfdf5" stroke="#6ee7b7"/>
        <text x="22" y="26" fill="#047857">Local-first</text>
        <rect x="150" y="0" width="142" height="40" rx="20" fill="#eff6ff" stroke="#93c5fd"/>
        <text x="172" y="26" fill="#1d4ed8">SQLite-first</text>
        <rect x="310" y="0" width="150" height="40" rx="20" fill="#fff7ed" stroke="#fdba74"/>
        <text x="332" y="26" fill="#b45309">Quality gates</text>
        <rect x="478" y="0" width="148" height="40" rx="20" fill="#fdf2f8" stroke="#f9a8d4"/>
        <text x="500" y="26" fill="#be185d">K12 Expert</text>
      </g>
    </g>

    <g transform="translate(702 72)">
      <rect x="0" y="0" width="368" height="352" rx="30" fill="#102326" stroke="#25484d" stroke-width="2"/>
      <text x="32" y="48" font-size="24" font-weight="740" fill="#d9f3ef">Files become trusted answers</text>
      <text x="32" y="78" font-size="15" font-weight="560" fill="#92bdb5">source folder | catalog | gates | citations</text>

      <g transform="translate(30 142)">
        <rect x="0" y="0" width="58" height="132" rx="16" fill="#17333a" stroke="#34d399"/>
        <text x="29" y="37" text-anchor="middle" font-size="14" font-weight="740" fill="#d1fae5">Source</text>
        <text x="29" y="65" text-anchor="middle" font-size="11" fill="#a8c7c2">PDF</text>
        <text x="29" y="86" text-anchor="middle" font-size="11" fill="#a8c7c2">Office</text>

        <rect x="84" y="0" width="58" height="132" rx="16" fill="#142b42" stroke="#60a5fa"/>
        <text x="113" y="37" text-anchor="middle" font-size="14" font-weight="740" fill="#dbeafe">Catalog</text>
        <text x="113" y="65" text-anchor="middle" font-size="11" fill="#b9d2e6">SQLite</text>
        <text x="113" y="86" text-anchor="middle" font-size="11" fill="#b9d2e6">truth</text>

        <rect x="168" y="0" width="58" height="132" rx="16" fill="#3a2a12" stroke="#f59e0b"/>
        <text x="197" y="37" text-anchor="middle" font-size="14" font-weight="740" fill="#ffedd5">Gates</text>
        <text x="197" y="65" text-anchor="middle" font-size="11" fill="#f6d79a">review</text>
        <text x="197" y="86" text-anchor="middle" font-size="11" fill="#f6d79a">eval</text>

        <rect x="252" y="0" width="58" height="132" rx="16" fill="#301b32" stroke="#f472b6"/>
        <text x="281" y="37" text-anchor="middle" font-size="14" font-weight="740" fill="#fce7f3">Answer</text>
        <text x="281" y="65" text-anchor="middle" font-size="11" fill="#ecc7dd">cited</text>
        <text x="281" y="86" text-anchor="middle" font-size="11" fill="#ecc7dd">scoped</text>
      </g>
    </g>
  </g>
</svg>
