<svg width="1600" height="760" viewBox="0 0 1600 760" xmlns="http://www.w3.org/2000/svg" role="img" aria-label="KnowMesh five stage workflow">
  <defs>
    <linearGradient id="bg" x1="0" y1="0" x2="1" y2="1">
      <stop offset="0" stop-color="#fbfdfc"/>
      <stop offset="1" stop-color="#eef6ff"/>
    </linearGradient>
    <filter id="shadow" x="-20%" y="-20%" width="140%" height="140%">
      <feDropShadow dx="0" dy="14" stdDeviation="16" flood-color="#0f172a" flood-opacity="0.12"/>
    </filter>
  </defs>

  <rect width="1600" height="760" rx="32" fill="url(#bg)"/>
  <text x="92" y="92" font-family="Segoe UI, Microsoft YaHei UI, Arial, sans-serif" font-size="44" font-weight="760" fill="#102326">How KnowMesh Compiles a Knowledge Asset</text>
  <text x="92" y="136" font-family="Segoe UI, Microsoft YaHei UI, Arial, sans-serif" font-size="23" font-weight="520" fill="#526879">A legible runtime path: files become cataloged, quality-gated, versioned, and queryable knowledge.</text>

  <g transform="translate(70 220)" font-family="Segoe UI, Microsoft YaHei UI, Arial, sans-serif">
    <g>
      <rect x="0" y="0" width="220" height="250" rx="26" fill="#ffffff" stroke="#b7d3ce" filter="url(#shadow)"/>
      <circle cx="38" cy="48" r="15" fill="#10b981"/>
      <text x="66" y="45" font-size="16" font-weight="740" fill="#10b981">01</text>
      <text x="66" y="76" font-size="25" font-weight="740" fill="#102326">Source</text>
      <text x="28" y="124" font-size="17" fill="#405766">PDF, Office, WPS</text>
      <text x="28" y="156" font-size="17" fill="#405766">images and scans</text>
      <text x="28" y="188" font-size="17" fill="#405766">split-file risks</text>
      <path d="M28 214H172" stroke="#10b981" stroke-width="7" stroke-linecap="round"/>
    </g>

    <g transform="translate(290 0)">
      <rect x="0" y="0" width="220" height="250" rx="26" fill="#ffffff" stroke="#bfd2ef" filter="url(#shadow)"/>
      <circle cx="38" cy="48" r="15" fill="#2563eb"/>
      <text x="66" y="45" font-size="16" font-weight="740" fill="#2563eb">02</text>
      <text x="66" y="76" font-size="25" font-weight="740" fill="#102326">Catalog</text>
      <text x="28" y="124" font-size="17" fill="#405766">workspace.sqlite</text>
      <text x="28" y="156" font-size="17" fill="#405766">catalog.sqlite</text>
      <text x="28" y="188" font-size="17" fill="#405766">artifact paths</text>
      <path d="M28 214H172" stroke="#2563eb" stroke-width="7" stroke-linecap="round"/>
    </g>

    <g transform="translate(580 0)">
      <rect x="0" y="0" width="220" height="250" rx="26" fill="#ffffff" stroke="#f3c986" filter="url(#shadow)"/>
      <circle cx="38" cy="48" r="15" fill="#f59e0b"/>
      <text x="66" y="45" font-size="16" font-weight="740" fill="#f59e0b">03</text>
      <text x="66" y="76" font-size="25" font-weight="740" fill="#102326">Quality</text>
      <text x="28" y="124" font-size="17" fill="#405766">review queues</text>
      <text x="28" y="156" font-size="17" fill="#405766">evaluations</text>
      <text x="28" y="188" font-size="17" fill="#405766">citation checks</text>
      <path d="M28 214H172" stroke="#f59e0b" stroke-width="7" stroke-linecap="round"/>
    </g>

    <g transform="translate(870 0)">
      <rect x="0" y="0" width="220" height="250" rx="26" fill="#ffffff" stroke="#e9b8d0" filter="url(#shadow)"/>
      <circle cx="38" cy="48" r="15" fill="#db2777"/>
      <text x="66" y="45" font-size="16" font-weight="740" fill="#db2777">04</text>
      <text x="66" y="76" font-size="25" font-weight="740" fill="#102326">Version</text>
      <text x="28" y="124" font-size="17" fill="#405766">releases</text>
      <text x="28" y="156" font-size="17" fill="#405766">rollback</text>
      <text x="28" y="188" font-size="17" fill="#405766">sidecars</text>
      <path d="M28 214H172" stroke="#db2777" stroke-width="7" stroke-linecap="round"/>
    </g>

    <g transform="translate(1160 0)">
      <rect x="0" y="0" width="220" height="250" rx="26" fill="#ffffff" stroke="#adceff" filter="url(#shadow)"/>
      <circle cx="38" cy="48" r="15" fill="#4f46e5"/>
      <text x="66" y="45" font-size="16" font-weight="740" fill="#4f46e5">05</text>
      <text x="66" y="76" font-size="25" font-weight="740" fill="#102326">Query</text>
      <text x="28" y="124" font-size="17" fill="#405766">cited answers</text>
      <text x="28" y="156" font-size="17" fill="#405766">feedback actions</text>
      <text x="28" y="188" font-size="17" fill="#405766">integration APIs</text>
      <path d="M28 214H172" stroke="#4f46e5" stroke-width="7" stroke-linecap="round"/>
    </g>
  </g>

  <g transform="translate(100 580)" font-family="Segoe UI, Microsoft YaHei UI, Arial, sans-serif">
    <rect x="0" y="0" width="1400" height="74" rx="24" fill="#102326"/>
    <text x="34" y="45" font-size="19" font-weight="650" fill="#d9f3ef">Truth lives in SQLite catalogs.</text>
    <text x="386" y="45" font-size="19" fill="#b7d9d2">Artifacts stay on disk.</text>
    <text x="690" y="45" font-size="19" fill="#bfdbfe">Vectors accelerate retrieval.</text>
    <text x="1074" y="45" font-size="19" fill="#fed7aa">JSON is export and audit.</text>
  </g>
</svg>
